<svg xmlns="http://www.w3.org/2000/svg" viewBox="0 0 600 440">
  <defs>
    <radialGradient id="bg2" cx="50%" cy="40%" r="60%">
      <stop offset="0%" stop-color="#1a1208"/>
      <stop offset="100%" stop-color="#07130a"/>
    </radialGradient>
    <radialGradient id="shell2" cx="38%" cy="28%" r="65%">
      <stop offset="0%" stop-color="#7a4a18"/>
      <stop offset="60%" stop-color="#4a2c0a"/>
      <stop offset="100%" stop-color="#261405"/>
    </radialGradient>
  </defs>

  <rect width="600" height="440" fill="url(#bg2)"/>

  <!-- MTB Helmet — fuller rear coverage, peak visor, side view -->

  <!-- Main shell — rounder with longer rear -->
  <path d="M105 295 Q88 225 108 155 Q136 75 200 52 Q260 32 318 40 Q385 50 428 108 Q464 162 462 230 Q462 280 448 310 Q440 330 420 335 Q390 348 340 352 Q290 356 240 352 Q170 348 135 330 Q112 318 105 295 Z"
        fill="url(#shell2)" stroke="#c8973d" stroke-width="1.5" opacity="0.95"/>

  <!-- Top gloss highlight -->
  <path d="M175 68 Q238 48 308 56 Q368 64 412 105"
        fill="none" stroke="rgba(255,255,255,0.22)" stroke-width="5" stroke-linecap="round"/>

  <!-- Peak visor -->
  <path d="M108 152 Q90 148 75 155 Q62 162 68 172 Q78 185 108 180"
        fill="#3a1e08" stroke="#c8973d" stroke-width="1.5" opacity="0.9"/>

  <!-- Vents — fewer but bigger -->
  <path d="M168 160 Q202 152 238 158" fill="none" stroke="#c8973d" stroke-width="6" stroke-linecap="round" opacity="0.8"/>
  <path d="M160 192 Q202 183 246 190" fill="none" stroke="#c8973d" stroke-width="6" stroke-linecap="round" opacity="0.7"/>
  <path d="M158 224 Q204 215 250 222" fill="none" stroke="#c8973d" stroke-width="5" stroke-linecap="round" opacity="0.6"/>

  <!-- Rear coverage detail -->
  <path d="M420 310 Q445 330 440 355 Q435 375 415 380" fill="none" stroke="#c8973d" stroke-width="2" opacity="0.5"/>

  <!-- Chin strap -->
  <path d="M118 290 Q102 330 112 365 Q118 382 132 380 Q144 378 146 364"
        fill="none" stroke="#c8973d" stroke-width="2" stroke-linecap="round" opacity="0.7"/>
  <path d="M444 305 Q456 340 446 368 Q440 384 426 382 Q414 380 412 366"
        fill="none" stroke="#c8973d" stroke-width="2" stroke-linecap="round" opacity="0.7"/>
  <rect x="280" y="370" width="34" height="18" rx="4" fill="none" stroke="#c8973d" stroke-width="1.5" opacity="0.6"/>

  <text x="300" y="420" text-anchor="middle" fill="rgba(200,151,61,0.6)" font-family="Inter, Arial, sans-serif" font-size="13" font-weight="600" letter-spacing="0.12em">MOUNTAIN BIKE — FULL COVERAGE</text>
</svg>
